<mxfile host="app.diagrams.net" modified="2023-12-14T08:13:10.669Z" agent="Mozilla/5.0 (Windows NT 10.0; Win64; x64) AppleWebKit/537.36 (KHTML, like Gecko) Chrome/120.0.0.0 Safari/537.36" version="21.6.9" etag="ZyrLIxnvel6dLzY_KcbD" type="github">
  <diagram name="第 1 页" id="qJ2Is2FJ3rkRu_36xcjR">
    <mxGraphModel>
      <root>
        <mxCell id="0" />
        <mxCell id="1" parent="0" />
      </root>
    </mxGraphModel>
  </diagram>
</mxfile>
